<svg xmlns="http://www.w3.org/2000/svg" xmlns:xlink="http://www.w3.org/1999/xlink" width="1920" height="1080" viewBox="0 0 1920 1080">
  <defs>
    <clipPath id="clip-Web_1920_1">
      <rect width="1920" height="1080"/>
    </clipPath>
  </defs>
  <g id="Web_1920_1" data-name="Web 1920 – 1" clip-path="url(#clip-Web_1920_1)">
    <rect width="1920" height="1080" fill="#ffd841"/>
    <g id="Group_5" data-name="Group 5">
      <ellipse id="Ellipse_1" data-name="Ellipse 1" cx="234" cy="227" rx="234" ry="227" transform="translate(726 313)" fill="#fff" opacity="0.295"/>
      <path id="Path_108" data-name="Path 108" d="M-1.471,531.136V548.3l181.118,43.422,101.985,64.6L484.015,682.01,648.59,723.6H750.615l121.628,25.7H960V331.413H872.244L750.615,358.349H648.59L484.015,410.918l-202.382,16.6L179.647,498.08Z" transform="translate(961.471 0.076)" fill="#fe9e9a"/>
      <path id="Path_109" data-name="Path 109" d="M-.641,145.41l125.605,36.338,66.507,80.574,93.655,91.312L642.14,451.824l178.3,77.84L959.359,568.33V325.181s-103.521-6.3-175.349-24.646-74.422.58-141.87-15.135c-46.621-13.125-63.569-22.074-131.483-37.373-70.378-15.854-97.649-13.648-139.283-13.7s-53.086-2.214-91.393-13.981c-23.216-8.383-47.209-29.109-56.7-38.6-22.6-22.6-24.266-28.61-81.522-38.17S-.641,127.889-.641,127.889Z" transform="translate(960.641 420.898)" fill="#0d7263"/>
      <path id="Path_110" data-name="Path 110" d="M-58.558.4s53.323,19.09,91.09,30.894,48.656,39.9,52.547,50.268,6.438,28.524,11.011,45.179,15.47,49.715,27.358,78.2,16.029,50.736,50.229,83.036,138.11,44.613,175.079,66.334,44.571,40.62,117.952,79.638S533.17,472.3,588.79,497.053s233.986,13.525,233.986,13.525H901.13L960,405.983s-85.907-31.87-146.726-41.384-101.74-22-155.422-45.225-42.5-23.737-93.273-54.861-82.32-37.082-118.905-41.566-78.636-2.379-130.7-26.585-66.955-21.646-108.426-48.816-56.373-51.414-66.206-69.634-14.407-40.038-34.922-50.634S74.757,9.77,29.255,2.669s-87.813-19.88-87.813-19.88Z" transform="translate(1018.558 583.246)" fill="#61baac"/>
      <path id="Path_111" data-name="Path 111" d="M-.641,550.809l125.605-36.338L191.471,433.9l93.655-91.312L642.14,244.4l178.3-77.84,138.924-38.667V371.038s-103.521,6.3-175.349,24.646-74.422-.58-141.87,15.135c-46.621,13.125-63.569,22.074-131.483,37.373-70.378,15.854-97.649,13.648-139.283,13.7s-53.086,2.214-91.393,13.981c-23.216,8.383-47.209,29.109-56.7,38.6-22.6,22.6-24.266,28.61-81.522,38.17S-.641,568.33-.641,568.33Z" transform="translate(960.641 -37.118)" fill="#0d7263"/>
      <path id="Path_112" data-name="Path 112" d="M-58.558,495.513s53.323-19.09,91.09-30.894,48.656-39.9,52.547-50.268,6.438-28.524,11.011-45.179,15.47-49.715,27.358-78.2,16.029-50.736,50.229-83.036,138.11-44.613,175.079-66.334,44.571-40.62,117.952-79.638S533.17,23.612,588.79-1.144,822.776-14.67,822.776-14.67H901.13L960,89.925s-85.907,31.87-146.726,41.384-101.74,22-155.422,45.225-42.5,23.737-93.273,54.861-82.32,37.082-118.905,41.566-78.636,2.379-130.7,26.585-66.955,21.646-108.426,48.816S150.171,399.777,140.338,418s-14.407,40.038-34.922,50.634-30.659,17.509-76.161,24.61-87.813,19.88-87.813,19.88Z" transform="translate(1018.558 0.846)" fill="#61baac"/>
      <path id="Path_100" data-name="Path 100" d="M960,531.136V548.3L778.882,591.723,676.9,656.323,474.515,682.01,309.939,723.6H207.914l-121.628,25.7H-1.471V331.413H86.286l121.628,26.935H309.939l164.576,52.569,202.382,16.6L778.882,498.08Z" fill="#61baac"/>
      <path id="Path_106" data-name="Path 106" d="M959.359,145.41,833.753,181.748l-66.507,80.574-93.655,91.312L316.578,451.824l-178.3,77.84L-.641,568.33V325.181s103.521-6.3,175.349-24.646,74.422.58,141.87-15.135c46.621-13.125,63.569-22.074,131.483-37.373,70.378-15.854,97.649-13.648,139.283-13.7s53.086-2.214,91.393-13.981c23.216-8.383,47.209-29.109,56.7-38.6,22.6-22.6,24.266-28.61,81.522-38.17s142.4-15.689,142.4-15.689Z" transform="translate(0.641 420.822)" fill="#d04939"/>
      <path id="Path_107" data-name="Path 107" d="M960,.4s-53.323,19.09-91.09,30.894-48.656,39.9-52.547,50.268-6.438,28.524-11.011,45.179-15.47,49.715-27.358,78.2-16.029,50.736-50.229,83.036S589.654,332.583,552.685,354.3s-44.571,40.62-117.952,79.638-66.461,38.354-122.081,63.11S78.666,510.578,78.666,510.578H.312l-58.87-104.6S27.349,374.113,88.168,364.6s101.74-22,155.422-45.225,42.5-23.737,93.273-54.861,82.32-37.082,118.905-41.566,78.636-2.379,130.7-26.585,66.955-21.646,108.426-48.816S751.272,96.131,761.1,77.912s14.407-40.038,34.922-50.634S826.686,9.77,872.187,2.669,960-17.211,960-17.211Z" transform="translate(0 583.17)" fill="#ff9e9a"/>
      <path id="Path_98" data-name="Path 98" d="M959.359,550.809,833.753,514.471,767.247,433.9l-93.655-91.312L316.578,244.4l-178.3-77.84L-.641,127.889V371.038s103.521,6.3,175.349,24.646,74.422-.58,141.87,15.135c46.621,13.125,63.569,22.074,131.483,37.373,70.378,15.854,97.649,13.648,139.283,13.7s53.086,2.214,91.393,13.981c23.216,8.383,47.209,29.109,56.7,38.6,22.6,22.6,24.266,28.61,81.522,38.17s142.4,15.689,142.4,15.689Z" transform="translate(0.641 -37.194)" fill="#d04939"/>
      <path id="Path_99" data-name="Path 99" d="M960,495.513s-53.323-19.09-91.09-30.894-48.656-39.9-52.547-50.268-6.438-28.524-11.011-45.179-15.47-49.715-27.358-78.2-16.029-50.736-50.229-83.036S589.654,163.325,552.685,141.6s-44.571-40.62-117.952-79.638S368.273,23.612,312.653-1.144,78.666-14.67,78.666-14.67H.312l-58.87,104.6S27.349,121.8,88.168,131.309s101.74,22,155.422,45.225,42.5,23.737,93.273,54.861,82.32,37.082,118.905,41.566,78.636,2.379,130.7,26.585,66.955,21.646,108.426,48.816S751.272,399.777,761.1,418s14.407,40.038,34.922,50.634,30.659,17.509,76.161,24.61S960,513.119,960,513.119Z" transform="translate(0 0.769)" fill="#ff9e9a"/>
      <g id="Frame_1" data-name="Frame 1" transform="translate(793.084 290.258)">
        <path id="Path_1" data-name="Path 1" d="M513.741,1324.909s-136.422-1.484-137.411-1.422a3.89,3.89,0,0,0-1.917.68c-.618.309-.928,1.051-1.36,1.732a7.9,7.9,0,0,0-.618,3.649c.062,1.237,7.73,78.848,7.73,78.848s6.06,2.1,7.545,2.6,3.154.557,4.143.989,3.092,1.484,3.092,1.484,67.964.433,72.045.557,45.391,2.164,47.247,1.979a16.567,16.567,0,0,0,3.71-.495,4.049,4.049,0,0,0,1.979-1.67,4.884,4.884,0,0,0,.68-2.412,2.116,2.116,0,0,0,.989-1.113c.309-.8,3.03-14.595,3.03-14.595a17.241,17.241,0,0,0-2.721.186c-.68.186-1.979.618-1.979.618l-.8-64.872-.557-4.02-1.855-1.917Z" transform="translate(-287.221 -1070.847)" fill="#c7c7c7" stroke="#c7c7c7" stroke-width="1"/>
        <path id="Path_2" data-name="Path 2" d="M969.3,1636.108a4.983,4.983,0,0,0-.8,2.35s2.659.124,3.4-1.113a6.311,6.311,0,0,0,.742-2.845S970.046,1635.057,969.3,1636.108Z" transform="translate(-809.573 -1343.395)" fill="#efefef"/>
        <path id="Path_3" data-name="Path 3" d="M918.97,1668.954a5.447,5.447,0,0,1,1.237-2.845l1.3-1.422a2.654,2.654,0,0,1,2.474-.124,10.137,10.137,0,0,1,1.917,1.546,2.647,2.647,0,0,1,1.979-1.422,4.633,4.633,0,0,1,4.885,1.422,11.294,11.294,0,0,0-2.164,1.917,2.314,2.314,0,0,0,.557,2.845,12,12,0,0,1,1.608,1.793l-2.164,2.906a2.823,2.823,0,0,1-2.1,1.175,4.692,4.692,0,0,1-2.6-1.175,2.151,2.151,0,0,1-3.834,0,15.479,15.479,0,0,1-1.855-2.906C919.526,1671.181,918.908,1670.439,918.97,1668.954Z" transform="translate(-766.165 -1369.5)" fill="#efefef"/>
        <path id="Path_4" data-name="Path 4" d="M969.3,1636.108a4.983,4.983,0,0,0-.8,2.35s2.659.124,3.4-1.113a6.311,6.311,0,0,0,.742-2.845S970.046,1635.057,969.3,1636.108Z" transform="translate(-809.573 -1343.395)" fill="none" stroke="#efefef" stroke-width="1"/>
        <path id="Path_5" data-name="Path 5" d="M918.97,1668.954a5.447,5.447,0,0,1,1.237-2.845l1.3-1.422a2.654,2.654,0,0,1,2.474-.124,10.137,10.137,0,0,1,1.917,1.546,2.647,2.647,0,0,1,1.979-1.422,4.633,4.633,0,0,1,4.885,1.422,11.294,11.294,0,0,0-2.164,1.917,2.314,2.314,0,0,0,.557,2.845,12,12,0,0,1,1.608,1.793l-2.164,2.906a2.823,2.823,0,0,1-2.1,1.175,4.692,4.692,0,0,1-2.6-1.175,2.151,2.151,0,0,1-3.834,0,15.479,15.479,0,0,1-1.855-2.906C919.526,1671.181,918.908,1670.439,918.97,1668.954Z" transform="translate(-766.165 -1369.5)" fill="none" stroke="#efefef" stroke-width="1"/>
        <path id="Path_6" data-name="Path 6" d="M1565,1921c0,1.208.2,2.385.2,3.618v3.216c0,1.007.2,2.047.2,3.065,0,.935.1,1.976.1,2.965" transform="translate(-1332.296 -1594.46)" fill="none" stroke="#efefef" stroke-linecap="round" stroke-linejoin="round" stroke-width="1"/>
        <path id="Path_7" data-name="Path 7" d="M82.244,1866.564c2.474.186,9.029.495,9.029.495s1.3,15.646,1.546,15.893,8.225,2.721,8.781,2.845a18.394,18.394,0,0,1,2.783.557c.742.309,3.154,1.67,3.154,1.67l45.577.309s27.21.124,32.714.433,40.506,1.732,41.743,1.732a9.486,9.486,0,0,0,3.278-.557,4.555,4.555,0,0,0,1.484-1.051,2.939,2.939,0,0,0,.866-1.422,4.531,4.531,0,0,0,.309-1.542c-.006,0,0,0,0,0v0c.012,0,.087-.053.433-.313.495-.371.247-.371.495-.8s2.659-14.471,3.092-14.78,7.3,0,9.585,0a35.05,35.05,0,0,0,5.133,0c1.484-.247,3.278-.8,4.638-1.113s7.606,0,10.142,0a23.426,23.426,0,0,1,7.854,1.608c2.474.928,5.689,2.6,6.988,3.958s2.1,3.587,2.6,4.205,3.154,2.6,3.4,3.03l.021.036c.277.481,1.217,2.116,1.278,6.334.062,4.329-1.855,10.142-1.855,10.7a5.634,5.634,0,0,1-.371,2.721c-.495.866-6.37,10.76-8.6,12.245a21.473,21.473,0,0,1-3.525,1.855c-.309.247-1.917,1.361-2.474,1.855a36.325,36.325,0,0,1-3.9,3.958c-1.732,1.3-6.679,2.969-6.679,2.969a41.513,41.513,0,0,1-6.493,2.906c-3.092.989-6.617,2.906-7.174,2.164s-3.092-1.3-3.9-1.484a16.736,16.736,0,0,1-3.525-1.732,13.267,13.267,0,0,0-6.308-2.041,19.586,19.586,0,0,0-7.112,1.113c-.989.433-6.555,3.339-6.555,3.339s-2.845,1.422-4.082,1.422H204.5c-.866,0-3.772,1.051-4.824,1.113a90.878,90.878,0,0,1-9.4-.495c-.742-.247-3.216-2.845-4.267-3.525a13.81,13.81,0,0,0-2.164-1.051c-.989-.495-1.917-1.608-3.278-2.35s-6.741-2.474-8.6-3.092-5.318-2.721-5.875-2.659c-.313.035-1.793,3.154-2.721,4.453a27.167,27.167,0,0,1-3.154,3.525c-1.175.99-2.845,4.576-3.4,4.885s-4.638-.433-7.3-.618-8.967-1.175-11.874-1.608-10.018-1.484-14.78-2.1-22.077-4.267-25.479-4.638-9.956-.495-13.605-1.237a73.914,73.914,0,0,1-11.688-4.02c-1.732-.8-8.72-6.246-10.389-7.73a28.968,28.968,0,0,1-3.649-4.453s-2.907-3.154-4.514-4.515a63.512,63.512,0,0,1-5.689-4.885,16.591,16.591,0,0,1-2.907-6.06,15.851,15.851,0,0,1,.309-7.359c.8-2.164,1.3-2.226,1.979-3.339s1.237-2.412,1.793-3.525a29.045,29.045,0,0,1,2.226-4.391,25.774,25.774,0,0,1,5.38-3.463c.989-.309,5.318-.99,6.679-1.237a54.966,54.966,0,0,1,9.524-.8C76.245,1865.018,79.77,1866.379,82.244,1866.564Z" transform="translate(0 -1545.28)" fill="#435772"/>
        <path id="Path_8" data-name="Path 8" d="M387.024,1989.22a11.627,11.627,0,0,0,1.117.537,2.893,2.893,0,0,0,.719.244c.515,0,.932.466,1.388.6a3.794,3.794,0,0,1,1.244.711c.2.176.506.156.7.327.142.127.533.062.615.226" transform="translate(-300.015 -1654.242)" fill="none" stroke="#86a1c2" stroke-linecap="round" stroke-linejoin="round" stroke-width="2"/>
        <path id="Path_9" data-name="Path 9" d="M553.459,2051.33a12.105,12.105,0,0,1,2.016,1.052,3.954,3.954,0,0,0,.783.568,4.477,4.477,0,0,1,.9.506,4.042,4.042,0,0,0,.632.407c.289.145.5.385.783.541.242.134.413.39.675.48a7.606,7.606,0,0,1,.889.36,2.467,2.467,0,0,1,.662.377c.083.1.261.12.361.21a3.225,3.225,0,0,0,.395.36,1.365,1.365,0,0,1,.254.253c.086.085.24.1.314.2.164.2.469.267.635.48a8.926,8.926,0,0,0,1.558,1.2c.52.424.911,1.075,1.629,1.233.255.057.51.323.752.444.3.151.549.4.843.56a5,5,0,0,1,.843.494,3.05,3.05,0,0,0,.843.419,3.279,3.279,0,0,1,.722.393c.315.157.556.469.9.568a13.589,13.589,0,0,1,1.595.9c.6.267.995.858,1.608,1.094a7.006,7.006,0,0,1,.829.513,2.536,2.536,0,0,1,.736.614,3.348,3.348,0,0,0,1.311.853,10.567,10.567,0,0,0,1.565.887" transform="translate(-445.865 -1708.67)" fill="none" stroke="#86a1c2" stroke-linecap="round" stroke-linejoin="round" stroke-width="2"/>
        <path id="Path_10" data-name="Path 10" d="M754.447,2179.42c.339.205.657.361.99.527a6.454,6.454,0,0,1,1.087.52c.3.235.765.272,1.053.513a3.029,3.029,0,0,0,.993.478,2.34,2.34,0,0,1,.585.242c.272.156.606.2.876.361a9.317,9.317,0,0,0,1.605.72c.745.27,1.507.573,2.287.78a16.472,16.472,0,0,1,2.531.72c.785.347,1.708.388,2.468.81.307.169.614.286.933.437s.679.174.993.313c.68.3,1.333.569,1.986.93.6.334,1.169.615,1.776.918.271.135.541.193.813.343a3.732,3.732,0,0,0,.993.391,2.954,2.954,0,0,1,.689.209c.188.085.417.1.6.181a4.546,4.546,0,0,0,1.344.389,4.757,4.757,0,0,1,1.07.3,1.879,1.879,0,0,0,.508.12,3.452,3.452,0,0,1,.916.346c.71.262,1.389.648,2.093.961.6.265,1.219.515,1.805.806.287.142.541.309.816.466s.421.36.689.494c.458.229.879.545,1.325.767" transform="translate(-621.995 -1820.917)" fill="none" stroke="#86a1c2" stroke-linecap="round" stroke-linejoin="round" stroke-width="2"/>
        <path id="Path_11" data-name="Path 11" d="M1030.11,2101.29a8,8,0,0,0,1.936-.345,1.363,1.363,0,0,0,.554-.214c.161-.129.49.077.651-.052.293-.233.9-.183,1.258-.384a3.27,3.27,0,0,1,1.206-.292c.5-.02.957-.234,1.486-.234.459,0,.881-.117,1.355-.117a27.251,27.251,0,0,0,3.4-.461,26.033,26.033,0,0,1,3.174-.591c1.144,0,2.215-.7,3.4-.7a6.976,6.976,0,0,0,1.753-.292c.375-.117,1.081-.074,1.388-.319s.886-.059,1.258-.266c.276-.153,1.064-.142,1.232-.351.181-.225.906-.01,1.147-.2.27-.214.8-.138,1.14-.214a12.562,12.562,0,0,1,2.58-.461c.986,0,1.953-.585,2.932-.585s1.922-.415,2.873-.468a10.411,10.411,0,0,0,1.583-.344,8.55,8.55,0,0,0,1.584-.215,7.819,7.819,0,0,1,1.348-.252c.53-.117,1.048-.276,1.577-.365a15.2,15.2,0,0,0,2.47-.753,29.188,29.188,0,0,0,2.815-.785c.8-.377,1.66-.58,2.462-.936a8.857,8.857,0,0,0,2.2-1.169,3.582,3.582,0,0,1,1.252-.449c.382-.109.524-.454.794-.669a3.1,3.1,0,0,1,.508-.136c.2-.057.406-.182.586-.234a3.031,3.031,0,0,0,.991-.649c.19-.239.769-.395,1.056-.553a10.019,10.019,0,0,0,1.231-.727,7.712,7.712,0,0,1,1.232-.675c.486-.244.832-.616,1.29-.884a10.076,10.076,0,0,0,1-.559c.3-.235.767-.263,1.023-.494.338-.3.872-.349,1.2-.675.163-.163.178-.328.359-.468a4.336,4.336,0,0,0,.527-.345c.256-.318.949-.386,1.264-.669a3.16,3.16,0,0,1,1.024-.552c.841-.187,1.539-.935,2.345-1.292,2.048-.908,4.163-1.576,6.3-2.313.977-.338,1.777-1,2.763-1.338.459-.159.935-.365,1.374-.559a9.362,9.362,0,0,1,1.4-.24c1.6-.457,3.4-.752,4.991-1.28" transform="translate(-863.563 -1728.676)" fill="none" stroke="#86a1c2" stroke-linecap="round" stroke-linejoin="round" stroke-width="2"/>
        <path id="Path_12" data-name="Path 12" d="M567.793,836.686c-.371.68-1.793,3.525-1.793,3.525s116.323,1.361,117.5,1.422a6.514,6.514,0,0,1,3.03.989,3.55,3.55,0,0,1,1.608,1.546,9.492,9.492,0,0,1,.618,2.536c.124.742.618,56.523.618,56.523s1.051,1.546,1.484,2.412a7.256,7.256,0,0,1,.742,2.968,4.62,4.62,0,0,1-.742,2.412c-.433.742-1.237,1.917-1.237,1.917a12.4,12.4,0,0,0,1.979-.247,17.805,17.805,0,0,1,2.968-.557h15.151a16.118,16.118,0,0,0,3.587-.8c.68-.433,1.546-2.164,2.041-2.721s2.288-1.546,2.721-2.1,4.453-9.771,4.762-10.389,1.67-.742,1.979-1.113a3.55,3.55,0,0,0,.8-2.164,7.558,7.558,0,0,1,.371-3.03c.309-.8,1.793-1.732,1.793-1.732a12.727,12.727,0,0,0,1.3-2.288,5.134,5.134,0,0,0,0-3.339,36.531,36.531,0,0,1-2.226-4.082c-.247-.928.618-2.536.928-3.4a17.342,17.342,0,0,0,.557-3.587c.062-.928-.557-6.308-.557-7.112s1.237-2.288,1.484-2.721a5.98,5.98,0,0,0,.309-2.1c0-.495-1.175-2.535-1.422-3.4s-.124-2.35-.371-3.525a16.932,16.932,0,0,0-2.164-4.081,50.367,50.367,0,0,1-2.783-6.308s-3.711-9.956-4.143-12.183a32.9,32.9,0,0,1-.495-4.7,34.268,34.268,0,0,0-.557-4.576,27.812,27.812,0,0,0-1.67-5.009c-.557-1.361-1.917-6.37-2.041-7.05s-.309-4.391-.557-5.628l-.028-.143a37.057,37.057,0,0,0-1.332-5.237,7.563,7.563,0,0,0-1.793-2.906l-.073-.084a34.778,34.778,0,0,1-2.215-2.7c-.247-.433-.742-1.732-1.237-2.659a18.994,18.994,0,0,0-3.03-3.339c-.866-.8-3.339-3.092-4.143-3.711s-2.1-1.484-3.339-2.474-3.9-3.711-3.9-3.711a12.488,12.488,0,0,0-3.154-2.164,2.76,2.76,0,0,0-2.35.309,1.941,1.941,0,0,0-.989,1.36c0,.495.247,1.484,0,1.979a16.208,16.208,0,0,1-3.278,2.783,6.942,6.942,0,0,1-2.6.433,4.754,4.754,0,0,1-2.1-.742,12.139,12.139,0,0,0-4.514-.247l-.063.019a3.143,3.143,0,0,1-2.658-.019c-.989-.557-2.1-1.361-2.1-1.361a10.325,10.325,0,0,1-1.546,1.917,21.083,21.083,0,0,1-3.463,1.917c-1.113.371-3.339.495-4.7.99s-2.907.989-3.9,1.237-2.164.557-3.216.8a18.762,18.762,0,0,1-4.391.618,6,6,0,0,1-2.783-.618c-1.051-.618-2.968-1.546-4.514-2.535l-.068-.044c-1.6-1.024-5.764-3.688-7.044-5.151-1.3-1.484-4.453-5.5-4.453-5.5a6.738,6.738,0,0,0,.309,1.546c.247.68.742,2.6,1.051,3.958a8.927,8.927,0,0,1,.309,3.711c-.247.928-1.36,1.608-2.968,2.474a37.063,37.063,0,0,1-5.195,2.164,10.869,10.869,0,0,0-2.536.433c-1.175.433-2.35,1.175-2.721,1.175s-3.9-2.226-4.7-2.226-1.793.247-2.6-.495-3.216-4.205-3.834-4.453a11.872,11.872,0,0,1-2.968-1.422,5.253,5.253,0,0,1-.928-1.979.867.867,0,0,0-.742-.618c-.742-.185-.8-1.67-.8-1.67s-.247-.371-.989,0a17.541,17.541,0,0,0-1.917,1.113c-.557.371-2.907,2.783-3.9,3.711s-2.412.866-3.772,1.793-2.35,2.783-3.463,4.02-1.484,3.772-1.732,4.391-1.113,1.793-1.361,2.536-.618,2.721-.866,3.4-.866,1.422-1.237,2.288a10.769,10.769,0,0,0-.495,2.6s-3.216,8.225-3.711,9.585-.928,4.267-1.422,5.257-2.226,4.267-2.659,5.133a16.3,16.3,0,0,0-.618,3.216,7.531,7.531,0,0,1-1.237,2.288c-.495.68-.8,3.649-1.051,4.453s-1.855,3.339-1.855,4.081S568.164,836.006,567.793,836.686Z" transform="translate(-456.855 -587.571)" fill="#df773a"/>
        <path id="Path_13" data-name="Path 13" d="M723.735,1048.27c.036,1.456.809,2.581.809,4.047v8.094c0,1.311-.578,2.531-.578,3.874,0,.664-.231,1.289-.231,1.907,0,.649.231,1.16.231,1.792a18.406,18.406,0,0,0,.469,4.047,13.486,13.486,0,0,1,.456,2.023,5.9,5.9,0,0,0,.225.983,5.021,5.021,0,0,1,.238.925,4.591,4.591,0,0,0,.6,1.766,5.2,5.2,0,0,0,.527.746,2.171,2.171,0,0,1,.488.552" transform="translate(-595.081 -829.671)" fill="none" stroke="#c65c1e" stroke-linecap="round" stroke-linejoin="round" stroke-width="1"/>
        <path id="Path_14" data-name="Path 14" d="M804.033,908.036c-.322.234-.727.373-1.015.6a6.272,6.272,0,0,1-.771.668c-.459.262-.787.93-1.195,1.3a4.116,4.116,0,0,0-.951,1.42,4.768,4.768,0,0,1-.867,1.561c-1.016.813-1.726,2.109-2.833,2.8a6.15,6.15,0,0,0-1.387,1.073,7.177,7.177,0,0,1-.668.546c-.208.187-.339.5-.546.668-.359.287-.5.843-.841,1.182a5.534,5.534,0,0,0-.809,1.593,4.612,4.612,0,0,0-.488,1.561c0,.559-.463,1.156-.463,1.735,0,.471-.435.968-.462,1.445a4.64,4.64,0,0,1-.321,1.76c-.156.194-.068.6-.231.81a3.385,3.385,0,0,0-.251.732,7.17,7.17,0,0,0-.585,1.728,3.8,3.8,0,0,1-.552,1.7,4.885,4.885,0,0,0-.495,1.651,4.986,4.986,0,0,1-.662,1.7c-.337.422-.234,1.311-.463,1.824a9.278,9.278,0,0,0-.495,1.677c-.139.625-.546,1.127-.681,1.734a21.4,21.4,0,0,0-.816,3.18c-.036.642-.347,1.221-.347,1.908,0,.31-.1.611-.116.867-.009.158-.057.716-.173.809-.206.164-.173,1.443-.173,1.734,0,.634-.231,1.2-.231,1.85,0,.626-.347,1.279-.347,1.908v1.965c0,1.309-.231,2.548-.231,3.874" transform="translate(-647.513 -706.782)" fill="none" stroke="#c65c1e" stroke-linecap="round" stroke-linejoin="round" stroke-width="1"/>
        <path id="Path_15" data-name="Path 15" d="M1040.02,847.23a12.893,12.893,0,0,1,1.607,1.047l.6.6c.205.2.5.292.715.479a5.582,5.582,0,0,0,.862.545,6.161,6.161,0,0,1,.914.73,7.652,7.652,0,0,0,1.541.995c.637.338,1.215.76,1.856,1.1.364.191.761.28,1.128.464l.929.464c.647.324,1.275.671,1.923,1,.351.176.707.307,1.061.464a2.635,2.635,0,0,0,.432.144c.148.033.3.186.43.2.29.036.548.18.862.2.277.016.586.249.863.265.293.017.61.265.927.265s.577.248.862.265c.631.037,1.27.332,1.924.332s1.257.066,1.923.066c1.369,0,2.732.066,4.113.066h.994c.349,0,.7-.133,1.061-.133a1.3,1.3,0,0,0,.432-.1c.132-.074.374.04.482-.048a2.943,2.943,0,0,1,1.043-.184,10.107,10.107,0,0,0,2.057-.136,6.693,6.693,0,0,0,1.86-.527c.272-.155.591-.15.86-.3.194-.108.771-.176.9-.332.155-.194.685-.083.9-.2a3.331,3.331,0,0,1,.931-.169,7.378,7.378,0,0,1,.892-.129c.105-.006.187-.172.3-.2a2.312,2.312,0,0,0,.766-.361c.147-.184.614-.169.8-.4a3.259,3.259,0,0,1,.7-.564c.592-.338,1.007-.965,1.72-1.124a4.708,4.708,0,0,0,1.519-.833,20.982,20.982,0,0,1,1.931-.995c.522-.29.865-.794,1.389-1.094a3.418,3.418,0,0,0,.42-.346,2.129,2.129,0,0,1,.445-.217,2.63,2.63,0,0,1,.862-.232c.573,0,1.063-.507,1.6-.66a4.033,4.033,0,0,0,.788-.468,3.334,3.334,0,0,0,.7-.5c.063-.079.239-.117.317-.181a4.347,4.347,0,0,0,.314-.35,2.091,2.091,0,0,0,.5-.726c.324-1.136,1.8-1.328,2.251-2.226" transform="translate(-872.247 -649.951)" fill="none" stroke="#c65c1e" stroke-linecap="round" stroke-linejoin="round" stroke-width="1"/>
        <path id="Path_16" data-name="Path 16" d="M1465.04,877.821c.137.611.684,1.187.717,1.794.014.246.089,1.112.27,1.256a7.41,7.41,0,0,1,.806,2.422,3.484,3.484,0,0,0,.27,1.256c.192.345.085,1.026.309,1.306.487.609.409,1.723.9,2.332a8.607,8.607,0,0,1,1.027,2.292,6.132,6.132,0,0,0,1.176,2.053c.56.448.774,1.574,1.206,2.113a16.582,16.582,0,0,1,1.255,2.372,12.722,12.722,0,0,1,1.207,2.073c.247.87,1.035,1.565,1.255,2.333a11.5,11.5,0,0,1,.907,2.412,7.277,7.277,0,0,0,.938,2.293c.943,1.177,1.165,3.227,1.565,4.625a7.586,7.586,0,0,1-.169,5.283" transform="translate(-1244.7 -680.304)" fill="none" stroke="#c65c1e" stroke-linecap="round" stroke-linejoin="round" stroke-width="1"/>
        <path id="Path_17" data-name="Path 17" d="M1571.822,1185.58a25.7,25.7,0,0,1,.432,4.909v2.374a5.942,5.942,0,0,1-.006,1.186,6.362,6.362,0,0,0-.318,1.187,3.738,3.738,0,0,1-.132,1.024c-.147.332.048.834-.167,1.1-.15.187-.025.922-.025,1.163,0,.359-.108.687-.108,1.078,0,1.536-.108,3.166-.108,4.639" transform="translate(-1337.896 -949.998)" fill="none" stroke="#c65c1e" stroke-linecap="round" stroke-linejoin="round" stroke-width="1"/>
        <path id="Path_18" data-name="Path 18" d="M1562.745,1329.51c0,1.634.087,3.331.087,5,0,.755.174,1.484.174,2.262s.087,1.562.087,2.315c0,2.977.434,5.962.434,8.944,0,3.091.086,6.221.086,9.259a6.265,6.265,0,0,1-.13,2.263,5.6,5.6,0,0,0-.39,1.894c0,.583-.492,1.156-.521,1.736a2.009,2.009,0,0,1-.781,1.368" transform="translate(-1329.03 -1076.127)" fill="none" stroke="#c65c1e" stroke-linecap="round" stroke-linejoin="round" stroke-width="1"/>
        <path id="Path_19" data-name="Path 19" d="M1605.41,1484.935a4.7,4.7,0,0,1,3.176-2.811,4.952,4.952,0,0,0,1.594-1.158,6.686,6.686,0,0,0,1.379-1.426" transform="translate(-1367.708 -1207.601)" fill="none" stroke="#c65c1e" stroke-linecap="round" stroke-linejoin="round" stroke-width="1"/>
        <path id="Path_20" data-name="Path 20" d="M1582.73,1553.845a19.468,19.468,0,0,0,1.725-1.055c.456-.241,1-.47,1.457-.726a15.513,15.513,0,0,1,3.338-1.247,17.246,17.246,0,0,0,2.973-.832c.481-.241.956-.449,1.457-.672a8.094,8.094,0,0,0,1.133-.863" transform="translate(-1347.833 -1267.988)" fill="none" stroke="#c65c1e" stroke-linecap="round" stroke-linejoin="round" stroke-width="1"/>
        <path id="Path_21" data-name="Path 21" d="M1591.45,1219.731a4.779,4.779,0,0,1,.377-2.211c.172-.308.071-.752.217-1.073a3.194,3.194,0,0,0,.27-1.03c.037-.669.611-1.268.75-1.889a5.315,5.315,0,0,1,.761-1.887,3.782,3.782,0,0,0,.432-.756c.037-.319.451-.528.533-.815a10.331,10.331,0,0,1,.737-1.558,8.964,8.964,0,0,0,.786-1.342,4.23,4.23,0,0,1,.726-1.271c.419-.465.445-1.144.725-1.649a5.593,5.593,0,0,0,.7-1.78c.063-.539.421-1.111.546-1.672a9.932,9.932,0,0,1,.558-1.78c.5-1.123.651-2.354,1.139-3.453a3.069,3.069,0,0,0,.023-.994,8.98,8.98,0,0,1,.21-1.211,9.305,9.305,0,0,0,.221-1.678" transform="translate(-1355.475 -955.344)" fill="none" stroke="#c65c1e" stroke-linecap="round" stroke-linejoin="round" stroke-width="1"/>
        <path id="Path_22" data-name="Path 22" d="M1838.31,1524.078c.514-.7,1.017-1.432,1.594-2.074a3.248,3.248,0,0,0,.372-.516c.127-.242.366-.328.491-.539.4-.681,1.643-1.3,1.643-2.158" transform="translate(-1571.803 -1241.996)" fill="none" stroke="#c65c1e" stroke-linecap="round" stroke-linejoin="round" stroke-width="1"/>
        <path id="Path_23" data-name="Path 23" d="M1608.236,1000.623c0-1.505-.216-2.883-.216-4.4s.216-3.013.216-4.532a18.058,18.058,0,0,1,.887-5.5c.5-1.63.611-3.364,1.031-5.046a13.292,13.292,0,0,1,.7-2.314c.23-.485.168-1.025.383-1.51.371-.834.329-1.827.7-2.7.5-1.191.821-2.4,1.4-3.56.349-.7.862-1.415,1.139-2.134.1-.269.388-1.339.563-1.426" transform="translate(-1369.995 -758.892)" fill="none" stroke="#c65c1e" stroke-linecap="round" stroke-linejoin="round" stroke-width="1"/>
        <path id="Path_24" data-name="Path 24" d="M1702.134,1068.877a12.843,12.843,0,0,1,.348-4.231c.272-.784.5-1.571.815-2.35a10.735,10.735,0,0,0,.665-2.158,19.861,19.861,0,0,1,1.924-4.854c.267-.6.224-1.368.48-1.942a10.091,10.091,0,0,0,.617-2.319,7.183,7.183,0,0,0,0-3.232,13.647,13.647,0,0,1-.642-3.6c0-.876-.215-1.753-.215-2.638v-2.511a9.549,9.549,0,0,1,.318-1.942,6.332,6.332,0,0,1,.329-1.565" transform="translate(-1452.457 -818.516)" fill="none" stroke="#c65c1e" stroke-linecap="round" stroke-linejoin="round" stroke-width="1"/>
        <path id="Path_25" data-name="Path 25" d="M1069.82,837.847c0-.589.465-.827.714-1.294a5.449,5.449,0,0,1,.931-1.321,5.977,5.977,0,0,0,.542-.608c.2-.261.521-.437.7-.713a7.447,7.447,0,0,1,.5-.551c.1-.125.131-.4.282-.473" transform="translate(-898.361 -640.926)" fill="none" stroke="#c65c1e" stroke-linecap="round" stroke-linejoin="round" stroke-width="1"/>
        <path id="Path_26" data-name="Path 26" d="M1073.31,846.507a9.941,9.941,0,0,1,1.186-1.684c.277-.4.533-.816.785-1.228a6.7,6.7,0,0,1,.67-.839c.19-.223.37-.5.573-.7.256-.257.512-.731.83-.89" transform="translate(-901.42 -648.185)" fill="none" stroke="#c65c1e" stroke-linecap="round" stroke-linejoin="round" stroke-width="1"/>
        <path id="Path_27" data-name="Path 27" d="M1088.57,858.773c.5-.7,1.1-1.363,1.551-2.091.333-.533.721-.973,1.093-1.471a10.272,10.272,0,0,0,1.13-1.4" transform="translate(-914.792 -659.264)" fill="none" stroke="#c65c1e" stroke-linecap="round" stroke-linejoin="round" stroke-width="1"/>
        <path id="Path_28" data-name="Path 28" d="M1104.26,871.739c.033-.837.91-1.426,1.325-2.1.286-.467.644-.934.971-1.378.156-.214.207-.5.377-.7.129-.152.17-.375.293-.512a3.139,3.139,0,0,0,.432-.593" transform="translate(-928.542 -670.343)" fill="none" stroke="#c65c1e" stroke-linecap="round" stroke-linejoin="round" stroke-width="1"/>
        <path id="Path_29" data-name="Path 29" d="M1122.57,878.387a3.972,3.972,0,0,1,.756-1.672,13.377,13.377,0,0,1,.835-1.321c.517-.745.771-1.653,1.268-2.4" transform="translate(-944.587 -676.075)" fill="none" stroke="#c65c1e" stroke-linecap="round" stroke-linejoin="round" stroke-width="1"/>
        <path id="Path_30" data-name="Path 30" d="M1136.96,886.67c0-1.452,1.109-2.407,1.7-3.634a6.565,6.565,0,0,1,.653-1.138c.132-.17.179-.546.4-.62" transform="translate(-957.197 -683.333)" fill="none" stroke="#c65c1e" stroke-linecap="round" stroke-linejoin="round" stroke-width="1"/>
        <path id="Path_31" data-name="Path 31" d="M1160.5,892.936c.382-1.1.976-2.1,1.283-3.235.21-.78.513-1.558.767-2.319" transform="translate(-977.826 -688.682)" fill="none" stroke="#c65c1e" stroke-linecap="round" stroke-linejoin="round" stroke-width="1"/>
        <path id="Path_32" data-name="Path 32" d="M1172.27,901.493a8.361,8.361,0,0,1,.219-1.86c.11-.493.482-.942.59-1.429a4.731,4.731,0,0,1,.432-1.09c.182-.319.166-.7.377-1.013" transform="translate(-988.14 -696.323)" fill="none" stroke="#c65c1e" stroke-linecap="round" stroke-linejoin="round" stroke-width="1"/>
        <path id="Path_33" data-name="Path 33" d="M1197.912,910.658a7.608,7.608,0,0,1,.053-1.54c.085-.4.189-.8.27-1.207a8.785,8.785,0,0,0,.324-1.782" transform="translate(-1010.6 -705.11)" fill="none" stroke="#c65c1e" stroke-linecap="round" stroke-linejoin="round" stroke-width="1"/>
        <path id="Path_34" data-name="Path 34" d="M1218,904.981a17.063,17.063,0,0,1,.162-3.346,10.5,10.5,0,0,0,.432-2.046" transform="translate(-1028.211 -699.379)" fill="none" stroke="#c65c1e" stroke-linecap="round" stroke-linejoin="round" stroke-width="1"/>
        <path id="Path_35" data-name="Path 35" d="M1240.72,901.048v-3.463c0-.938.108-1.856.108-2.792" transform="translate(-1048.124 -695.177)" fill="none" stroke="#c65c1e" stroke-linecap="round" stroke-linejoin="round" stroke-width="1"/>
        <path id="Path_36" data-name="Path 36" d="M1265.509,902.478a14.387,14.387,0,0,0-.215-3.451,3.592,3.592,0,0,0-.4-1.159,1.043,1.043,0,0,1-.189-.458" transform="translate(-1069.138 -697.469)" fill="none" stroke="#c65c1e" stroke-linecap="round" stroke-linejoin="round" stroke-width="1"/>
        <path id="Path_37" data-name="Path 37" d="M1283.6,899.031a16.843,16.843,0,0,0-.444-4.26c-.113-.43-.245-.86-.354-1.294a4.421,4.421,0,0,1-.228-.863" transform="translate(-1084.798 -693.267)" fill="none" stroke="#c65c1e" stroke-linecap="round" stroke-linejoin="round" stroke-width="1"/>
        <path id="Path_38" data-name="Path 38" d="M1306.8,890.653a12.355,12.355,0,0,0-.767-2.912c-.187-.724-.8-1.325-.8-2.1" transform="translate(-1104.664 -687.154)" fill="none" stroke="#c65c1e" stroke-linecap="round" stroke-linejoin="round" stroke-width="1"/>
        <path id="Path_39" data-name="Path 39" d="M1323.15,881.6a8.419,8.419,0,0,0-1.294-3.529c-.2-.415-.31-.906-.474-1.336a1.672,1.672,0,0,0-.443-.689" transform="translate(-1118.422 -678.749)" fill="none" stroke="#c65c1e" stroke-linecap="round" stroke-linejoin="round" stroke-width="1"/>
        <path id="Path_40" data-name="Path 40" d="M1339.551,882.149a7.467,7.467,0,0,0-.876-1.618,4.035,4.035,0,0,1-.7-1.294,10.564,10.564,0,0,0-.421-1.228,4.9,4.9,0,0,0-.485-1.09" transform="translate(-1132.557 -679.513)" fill="none" stroke="#c65c1e" stroke-linecap="round" stroke-linejoin="round" stroke-width="1"/>
        <path id="Path_41" data-name="Path 41" d="M1362.059,872.239a5.754,5.754,0,0,0-.714-1.953c-.209-.357-.437-.764-.677-1.1-.184-.255-.266-.578-.444-.845-.116-.175-.281-.53-.485-.581" transform="translate(-1152.423 -671.49)" fill="none" stroke="#c65c1e" stroke-linecap="round" stroke-linejoin="round" stroke-width="1"/>
        <path id="Path_42" data-name="Path 42" d="M1382.172,864.509a7.967,7.967,0,0,0-.891-1.48,7.177,7.177,0,0,1-.793-1.1,5.827,5.827,0,0,1-.689-1.144" transform="translate(-1170.002 -665.377)" fill="none" stroke="#c65c1e" stroke-linecap="round" stroke-linejoin="round" stroke-width="1"/>
        <path id="Path_43" data-name="Path 43" d="M1397.316,852.467a13.866,13.866,0,0,1-1.348-1.552c-.238-.273-.426-.53-.636-.821s-.4-.871-.712-1.078" transform="translate(-1182.989 -655.061)" fill="none" stroke="#c65c1e" stroke-linecap="round" stroke-linejoin="round" stroke-width="1"/>
        <path id="Path_44" data-name="Path 44" d="M1414.1,853.236a3,3,0,0,1-1.036-1.013c-.245-.335-.544-.638-.771-.986a3.487,3.487,0,0,1-.4-.614c-.048-.133-.213-.187-.27-.3" transform="translate(-1197.887 -656.208)" fill="none" stroke="#c65c1e" stroke-linecap="round" stroke-linejoin="round" stroke-width="1"/>
        <path id="Path_45" data-name="Path 45" d="M1434.653,847.681a8.942,8.942,0,0,1-1.614-1.8c-.121-.189-.28-.715-.489-.785" transform="translate(-1216.228 -651.624)" fill="none" stroke="#c65c1e" stroke-linecap="round" stroke-linejoin="round" stroke-width="1"/>
        <path id="Path_46" data-name="Path 46" d="M1563.4,1699.27c.364.275.706.586,1.076.821.39.247.852.839,1.312.941a2.344,2.344,0,0,1,.934.542c.3.271.7.376,1,.64a4.983,4.983,0,0,0,1.275.72c.378.168.631.427.982.621a10.91,10.91,0,0,1,1.177.986,6.628,6.628,0,0,0,1.112.945,2.352,2.352,0,0,1,.833.784c.207.39.558.651.756,1.048s.46.766.654,1.177c.176.371.628.748.669,1.177a10.826,10.826,0,0,0,.392,1.832c.115.4.459.836.459,1.243a4.6,4.6,0,0,0,.421,1.766,2.119,2.119,0,0,1,.168.654c.012.251.205.453.257.686a23.985,23.985,0,0,1,.4,5.234c0,.746-.672,1.446-1.033,2.061a2.066,2.066,0,0,1-1.716,1.046,1.563,1.563,0,0,1-1.014-.167c-.208-.161-.252-.471-.491-.6a2.875,2.875,0,0,0-.621-.338,7.875,7.875,0,0,0-2.584-.007c-.443.063-.852.4-1.308.4a1.767,1.767,0,0,0-.688.164c-.2.109-.521.046-.737.113a5.915,5.915,0,0,1-1.258.182c-.224.011-.883,0-.981.2" transform="translate(-1330.894 -1400.154)" fill="none" stroke="#c65c1e" stroke-linecap="round" stroke-linejoin="round" stroke-width="1"/>
        <path id="Path_47" data-name="Path 47" d="M1602.01,1870.826a7.77,7.77,0,0,0,3.566-1.142,7.488,7.488,0,0,1,.949-.4,2.292,2.292,0,0,1,.72-.229" transform="translate(-1364.729 -1548.944)" fill="none" stroke="#c65c1e" stroke-linecap="round" stroke-linejoin="round" stroke-width="1"/>
        <path id="Path_48" data-name="Path 48" d="M1599.9,1856.674a18.844,18.844,0,0,0,5.088-.589,3.767,3.767,0,0,0,1.112-.429c.131-.085.408-.226.472-.356" transform="translate(-1362.88 -1536.885)" fill="none" stroke="#c65c1e" stroke-linecap="round" stroke-linejoin="round" stroke-width="1"/>
        <path id="Path_49" data-name="Path 49" d="M1595.67,1828.624a16.806,16.806,0,0,0,3.263-1.569c.657-.328,1.295-.716,1.966-1.01a2.678,2.678,0,0,1,1.1-.3,1.487,1.487,0,0,0,.668-.065" transform="translate(-1359.173 -1510.929)" fill="none" stroke="#c65c1e" stroke-linecap="round" stroke-linejoin="round" stroke-width="1"/>
        <path id="Path_50" data-name="Path 50" d="M1587.2,1807.265a8.343,8.343,0,0,0,2.945-1.473c.606-.408,1.291-.711,1.86-1.177.419-.343.948-1.144,1.541-1.144" transform="translate(-1351.75 -1491.466)" fill="none" stroke="#c65c1e" stroke-linecap="round" stroke-linejoin="round" stroke-width="1"/>
        <path id="Path_51" data-name="Path 51" d="M1578.74,1794.44a12.723,12.723,0,0,0,2.355-1.112c.443-.283.827-.578,1.243-.9.5-.39,1.222-1.127,1.9-1.127" transform="translate(-1344.337 -1480.801)" fill="none" stroke="#c65c1e" stroke-linecap="round" stroke-linejoin="round" stroke-width="1"/>
        <path id="Path_52" data-name="Path 52" d="M1572.92,1767.928a9.176,9.176,0,0,0,3.795-2.094,5.425,5.425,0,0,1,1.963-1.5" transform="translate(-1339.237 -1457.167)" fill="none" stroke="#c65c1e" stroke-linecap="round" stroke-linejoin="round" stroke-width="1"/>
        <path id="Path_53" data-name="Path 53" d="M1570.81,1754.228a7.649,7.649,0,0,1,1.213-1.28c.377-.376.762-.743,1.142-1.112a10.3,10.3,0,0,1,1.661-1.112,11.007,11.007,0,0,1,.956-.684" transform="translate(-1337.388 -1444.644)" fill="none" stroke="#c65c1e" stroke-linecap="round" stroke-linejoin="round" stroke-width="1"/>
        <path id="Path_54" data-name="Path 54" d="M1567.1,1748.748a12.263,12.263,0,0,1,2-2.192c.283-.283.61-.523.915-.782.2-.166.57-.26.686-.495" transform="translate(-1334.137 -1440.473)" fill="none" stroke="#c65c1e" stroke-linecap="round" stroke-linejoin="round" stroke-width="1"/>
        <path id="Path_55" data-name="Path 55" d="M1563.93,1735.789c.391-.485.753-.972,1.17-1.436.291-.323.607-.641.872-.985.224-.289.537-.512.778-.789a2.963,2.963,0,0,1,.581-.519" transform="translate(-1331.359 -1428.888)" fill="none" stroke="#c65c1e" stroke-linecap="round" stroke-linejoin="round" stroke-width="1"/>
        <path id="Path_56" data-name="Path 56" d="M1565.52,1726.492a2.258,2.258,0,0,1,.654-1.243c.111-.113.543-.547.458-.589" transform="translate(-1332.752 -1422.404)" fill="none" stroke="#c65c1e" stroke-linecap="round" stroke-linejoin="round" stroke-width="1"/>
        <path id="Path_57" data-name="Path 57" d="M887.048,288.534a11.575,11.575,0,0,1,1.855-2.659,19.085,19.085,0,0,0,.989-1.67,8.991,8.991,0,0,1,1.361-1.732,7.246,7.246,0,0,1,1.67-1.484,25.552,25.552,0,0,1,3.4-1.113,6.656,6.656,0,0,0,1.793-.618,11.834,11.834,0,0,0,1.67-1.917,13.353,13.353,0,0,1,1.546-1.237,4.854,4.854,0,0,1,1.36-.309c.371,0,.371.557.866.309s1.484-.989,1.979-1.175,2.412-.371,3.03-.618a11.279,11.279,0,0,0,1.484-.8s1.793-.866,2.288-1.051a31.4,31.4,0,0,1,5.813.186c.866.186,1.67.928,2.35,1.113s1.422.309,1.422.309a10.455,10.455,0,0,1,2.041.866,16.143,16.143,0,0,1,2.041,1.67,31.74,31.74,0,0,1,2.412,2.721c.618.68,2.412,4.762,2.906,5.628s1.793,3.216,1.793,3.216,2.288,3.9,2.783,4.514,1.855,2.535,2.35,3.03,3.154,2.845,3.649,3.216,2.535,1.484,2.535,1.484a16.417,16.417,0,0,1-1.3,1.608,5.454,5.454,0,0,1-1.237.557c-.309.124-.989-.124-1.113.124a17.784,17.784,0,0,0,.247,2.907c.062.557.371,2.783.557,3.649s.495,2.041.618,2.907.247,2.164.247,2.164.247,2.226.247,2.721a3.274,3.274,0,0,1-.247,1.422,8.437,8.437,0,0,0,.247,3.154,12.21,12.21,0,0,0,.928,3.092c.371.8,1.67,2.968,1.917,3.772s-.124,4.453,0,5.566a8.713,8.713,0,0,0,.68,2.659,8.2,8.2,0,0,0,1.36,2.1c.495.495,1.979,1.793,1.979,1.793a12.553,12.553,0,0,1-1.67,2.041,10.554,10.554,0,0,1-2.6,1.484,54.483,54.483,0,0,1-5.875,1.361,17.927,17.927,0,0,0-3.154,1.113l-2.659.68s-3.278.742-4.02.8a12.758,12.758,0,0,1-2.968-.309,25.347,25.347,0,0,1-3.71-1.855l-4.329-2.783s-3.772-2.721-4.205-3.216-1.484-1.917-2.041-2.6a13.808,13.808,0,0,0-1.422-1.422,21.71,21.71,0,0,1-1.36-1.793c-.186-.371.124-1.917,0-2.288s-4.143-2.288-4.824-2.845a53.2,53.2,0,0,1-3.9-3.711c-.742-.866-3.649-5.937-3.649-5.937l-5.318-13.358s-1.855-4.082-2.226-4.885-.928-3.958-1.175-4.576a22.319,22.319,0,0,1-1.546-4.391A11.2,11.2,0,0,1,887.048,288.534Z" transform="translate(-738.016 -149.744)" fill="#e9b4b4"/>
        <path id="Path_58" data-name="Path 58" d="M847.415,172.185s-1.175-1.917-1.608-2.721-5.628-14.1-6.06-14.966a30.3,30.3,0,0,1-1.484-3.216,12.2,12.2,0,0,1-.371-1.546c-.124-.433-.557-2.35-.742-2.968a23.909,23.909,0,0,1-1.484-4.205,6.646,6.646,0,0,1,0-3.834,16.15,16.15,0,0,1,1.917-2.721,6.661,6.661,0,0,0,.989-1.422,11.472,11.472,0,0,1,1.3-1.979,10.933,10.933,0,0,1,2.783-1.855c.68-.124,3.154-.866,3.525-.989a5.49,5.49,0,0,0,1.361-.989c.247-.247,1.36-1.608,1.608-1.917a4.349,4.349,0,0,1,1.855-.742c.309,0,.8.495,1.175.371s.8-.928,1.3-1.051,1.732-.433,2.35-.557a29.38,29.38,0,0,0,3.03-1.237,6.43,6.43,0,0,1,2.164-.866c.866-.062,4.947.062,5.5.124a9.541,9.541,0,0,1,2.1,1.051c.371.186,1.608.247,2.226.433a8.4,8.4,0,0,1,1.67.8,15.765,15.765,0,0,1,2.535,2.164c.433.557,1.113,1.175,1.546,1.793a17.842,17.842,0,0,1,1.484,2.412c.371.8,1.3,2.474,1.67,3.339a20.783,20.783,0,0,0,1.67,3.03c.557.8,1.979,3.278,1.979,3.278a14.167,14.167,0,0,0,1.051,1.732c.371.433.68.742.928.989a4.752,4.752,0,0,1,.8,1.237,9.039,9.039,0,0,0,1.484,1.546,16.379,16.379,0,0,0,1.67,1.546c.742.557,2.35,1.608,2.35,1.608l1.422.8a14.494,14.494,0,0,1-.928,1.237,2.714,2.714,0,0,1-.866.68l-.68.247a7.6,7.6,0,0,1-.8.124,1.8,1.8,0,0,1-.495-.124s.433,4.02.495,4.514.557,3.278.68,3.834.433,2.659.433,2.659.247,1.608.309,2.226a11.447,11.447,0,0,1,.062,1.979c-.062.247-.247.495-.309.8a16.433,16.433,0,0,0,.124,2.845,32.672,32.672,0,0,0,1.422,3.958s1.422,2.721,1.546,3.154a15.651,15.651,0,0,1,0,2.412,27.447,27.447,0,0,0,.124,3.092,9.208,9.208,0,0,0,.557,2.412,16.043,16.043,0,0,0,1.175,2.041,10.879,10.879,0,0,0,1.237,1.237l1.051.8s1.546,1.051,1.855,1.237a2.44,2.44,0,0,0,.928.371,5.553,5.553,0,0,0,1.051,0s.8-.186,1.113-.247a7.612,7.612,0,0,1,1.237-.124c.371,0,1.732.124,1.979.124a7.952,7.952,0,0,1,1.175.247c.247.062,1.175.68,1.546.68a11.841,11.841,0,0,0,1.484,0,4.251,4.251,0,0,0,1.484-.309,20.408,20.408,0,0,0,1.855-1.3s1.3-1.175,1.422-1.361a1.165,1.165,0,0,0,.247-.557,13.5,13.5,0,0,0-.062-1.484,1.372,1.372,0,0,1,.247-.8,5.436,5.436,0,0,1,.618-.618,2.552,2.552,0,0,1,.928-.433,4.693,4.693,0,0,1,.989-.062,2.688,2.688,0,0,1,1.237.433,15.076,15.076,0,0,1,1.422.989c.371.309,1.113.989,1.113.989s.618-1.484.8-2.041a7.836,7.836,0,0,0,.557-1.979,11.361,11.361,0,0,0-.309-3.525c-.247-.989-1.361-3.4-1.67-4.205a3.1,3.1,0,0,1-.186-1.979c.124-.866.8-3.278.99-4.205a11.826,11.826,0,0,0,.247-3.339,8.57,8.57,0,0,0-.989-2.535s-.866-1.546-1.3-2.1a14.641,14.641,0,0,0-1.67-1.732c-.557-.495-1.608-1.237-1.608-1.237s-.618-.371-1.175-.742a35.533,35.533,0,0,1-2.659-2.6,5.944,5.944,0,0,1-.866-1.3,5.24,5.24,0,0,1-.557-1.422c-.185-.68-.495-2.6-.68-3.463s-.371-1.979-.68-2.968a27.482,27.482,0,0,0-1.175-3.154,9.608,9.608,0,0,0-1.422-2.6c-.68-.742-1.67-1.855-1.67-1.855s-2.164-2.288-2.906-2.845a26.332,26.332,0,0,1-2.536-2.783l-1.175-1.917a11.836,11.836,0,0,1-.8-1.608c-.247-.68-1.484-4.7-1.793-5.5a10.757,10.757,0,0,0-1.237-2.535,13.585,13.585,0,0,0-1.237-1.422A21.636,21.636,0,0,0,891.94,119c-.742-.433-3.278-1.546-3.9-1.979a14.3,14.3,0,0,1-1.793-1.484c-.495-.495-1.1-2.75-2.944-3.98s-3.054-1.586-3.611-2.08-2.862-2.55-3.791-2.8a29.33,29.33,0,0,1-3.011-.973c-.557-.247-2.041-1.608-2.659-1.917s-2.752-1.113-3.308-1.3-5.411-.433-5.72-.618a2.459,2.459,0,0,0-.989-.371c-.247,0-2.35,0-3.278.124a5.3,5.3,0,0,0-2.1.866,29.113,29.113,0,0,1-3.958,2.845c-1.051.433-1.855-.062-2.845.495a10.9,10.9,0,0,0-2.845,2.35c-.557.742-1.36,2.412-1.855,3.03a3.091,3.091,0,0,1-1.361,1.113,14.665,14.665,0,0,0-2.1.928,8.2,8.2,0,0,0-1.793,1.917,5.524,5.524,0,0,0-1.3,1.67c-.309.8-.185,1.051-.371,1.546s-.495.186-1.113.866a8.3,8.3,0,0,0-1.113,1.732,45.283,45.283,0,0,0-1.608,4.576c-.124.866-.371,2.412-.495,3.649s.062,3.4,0,4.391-.866,2.226-.742,3.834.433,4.762.433,4.762.186,4.947,0,5.751a15.547,15.547,0,0,1-.742,1.793,12.769,12.769,0,0,0-.557,2.907c-.062.989,0,4.453,0,4.453a21.169,21.169,0,0,1,0,4.02,36.817,36.817,0,0,0-1.608,5.133,15.562,15.562,0,0,0,0,3.649s.8,4.082.928,5.133a12.472,12.472,0,0,1,0,3.4c-.185.742-1.3,1.67-1.484,3.03s-.062,1.361,0,1.67,1.3,3.092,1.3,3.092.68,2.226.8,2.35.433.124.557.186a1.393,1.393,0,0,1,.309.309,9.915,9.915,0,0,0,.8,1.917,2.374,2.374,0,0,0,.928.8c.495.247,2.226.8,2.412.989a2.739,2.739,0,0,1,.309.371l1.422,1.608s1.36,1.732,1.67,2.1a2.224,2.224,0,0,0,1.3.8,15.983,15.983,0,0,0,1.732,0,4.612,4.612,0,0,1,1.917.866,27.493,27.493,0,0,0,2.721,1.361c.495.124,1.855-1.051,2.412-1.237s1.608-.186,2.164-.309,2.968-1.051,2.968-1.051,2.783-1.237,3.339-1.546,1.917-.928,2.226-1.67a5.109,5.109,0,0,0,.186-1.979,9.16,9.16,0,0,0-.186-1.855c-.185-.68-1.3-4.453-1.361-5.195s-.062-2.783-.124-3.03-3.958-2.164-4.947-2.968a36.5,36.5,0,0,1-3.834-3.649C848.713,174.6,847.415,172.185,847.415,172.185Z" transform="translate(-686.632)" fill="#773628"/>
        <path id="Path_59" data-name="Path 59" d="M1035,528.5a6.347,6.347,0,0,1,1.175.742,7.852,7.852,0,0,1,1.113,1.67,5.44,5.44,0,0,1,.495,1.979v2.6s0,7.359.186,7.668a5.055,5.055,0,0,0,1.36,1.113,13.753,13.753,0,0,0,1.917.866,2.908,2.908,0,0,0,1.608.124,6.386,6.386,0,0,0,1.3-.433,10.988,10.988,0,0,0,1.113-.742" transform="translate(-867.848 -374.188)" fill="none" stroke="#b75252" stroke-width="1"/>
        <path id="Path_60" data-name="Path 60" d="M1131.933,612.767a7.144,7.144,0,0,0,.8-.928,3.115,3.115,0,0,0,.186-1.175,1.779,1.779,0,0,0-.186-.989,6.69,6.69,0,0,0-1.237-1.175" transform="translate(-952.413 -444.293)" fill="none" stroke="#b75252" stroke-width="1"/>
        <path id="Path_61" data-name="Path 61" d="M1121.118,634.227c-.124.185-.618,1.113-.618,1.113a8.331,8.331,0,0,1,.742-.742,1.052,1.052,0,0,1,.433-.062.855.855,0,0,0,.557-.309.462.462,0,0,0,0-.557.32.32,0,0,0-.495,0A5.576,5.576,0,0,0,1121.118,634.227Z" transform="translate(-942.773 -466.248)" fill="#b75252" stroke="#b75252" stroke-width="1"/>
        <path id="Path_62" data-name="Path 62" d="M888.076,447.512c.247-.433,3.216-5.009,3.216-5.009l.371,1.113-1.36,2.6s2.041-1.051,2.536-1.36,1.979-.928,1.979-.928,1.484-.495,2.1-.68a5.936,5.936,0,0,1,1.67-.185h1.855a6.262,6.262,0,0,1,1.979.371,5.7,5.7,0,0,1,1.484.8,10.458,10.458,0,0,1,.866.866l.866.8a1.173,1.173,0,0,1,.309-.8,7.935,7.935,0,0,1,.866-.557,11.833,11.833,0,0,1,1.361-.618,4.283,4.283,0,0,1,1.546-.495h2.6a10.289,10.289,0,0,1,.557-1.732,10.511,10.511,0,0,1,.989-1.67,5.279,5.279,0,0,1,1.917-1.3c.557-.247,1.3-.557,1.979-.866a15.92,15.92,0,0,1,2.721-.742,14.409,14.409,0,0,1,2.845-.309h2.535a7.061,7.061,0,0,1,2.041.309,6.28,6.28,0,0,1,1.484.557,11.869,11.869,0,0,1,1.175,1.051,7.036,7.036,0,0,0,1.484-.866C932.416,437.493,936,431,936,431l.371.68s-3.649,6.741-3.958,7.05a5.2,5.2,0,0,1-1.237.68s.186.433.433,1.051a4.481,4.481,0,0,1,.433,1.608v2.164l-.433,1.979s-.433,1.051-.742,1.67a9.032,9.032,0,0,1-1.175,1.608,13.061,13.061,0,0,1-2.1,1.3,19.052,19.052,0,0,1-2.659.928c-.928.185-2.35.309-2.35.309a12.566,12.566,0,0,1-2.783-.309c-1.051-.309-2.721-.928-2.721-.928a11.947,11.947,0,0,1-1.979-1.3,7.551,7.551,0,0,1-1.237-1.608,19.083,19.083,0,0,1-.989-1.67,8.253,8.253,0,0,1-.557-1.979h-2.6a6.572,6.572,0,0,0-1.546.618s-.99.495-1.361.742-.557,1.113-.557,1.113.866,1.67,1.113,2.35a7.562,7.562,0,0,1,.309,2.164,8.185,8.185,0,0,1-.495,2.041,9.694,9.694,0,0,1-1.237,1.546,19.5,19.5,0,0,1-2.226,1.855,14.622,14.622,0,0,1-3.03,1.113,9.73,9.73,0,0,1-3.154.371,12.279,12.279,0,0,1-1.855-.371,15.4,15.4,0,0,1-3.587-2.288,10.87,10.87,0,0,1-1.793-2.226c-.433-.742-1.361-2.659-1.361-2.659l-.68.186a6.931,6.931,0,0,1-.8-1.3A5.565,5.565,0,0,1,888.076,447.512Z" transform="translate(-738.549 -288.747)" fill="#feb63a"/>
        <path id="Path_63" data-name="Path 63" d="M907.531,538.072a2.593,2.593,0,0,0-.866,1.113,5.3,5.3,0,0,0,0,2.783,10.569,10.569,0,0,0,.866,1.608,21.065,21.065,0,0,0,1.855,2.721,14.889,14.889,0,0,0,2.536,1.67,8.654,8.654,0,0,0,2.474.68,25.33,25.33,0,0,0,3.772-.68,36,36,0,0,0,3.649-2.041,4.107,4.107,0,0,0,1.732-2.907,6.888,6.888,0,0,0-.68-3.834,9.268,9.268,0,0,0-2.1-2.659,6.618,6.618,0,0,0-3.463-1.36,8.173,8.173,0,0,0-3.463,0,12.905,12.905,0,0,0-2.474.8A19.745,19.745,0,0,0,907.531,538.072Z" transform="translate(-755.221 -379.864)" fill="#ccddeb"/>
        <path id="Path_64" data-name="Path 64" d="M1097.258,485.369a10.843,10.843,0,0,0-2.041,1.793,5.54,5.54,0,0,0-.8,1.917,4.742,4.742,0,0,0,.247,1.67,7.217,7.217,0,0,0,.866,2.1,8.27,8.27,0,0,0,1.732,2.041,6.968,6.968,0,0,0,2.1,1.422,6.88,6.88,0,0,0,3.649.8,21.244,21.244,0,0,0,3.772-.371,7.862,7.862,0,0,0,1.855-.68,5.835,5.835,0,0,0,2.041-1.422,12.44,12.44,0,0,0,1.237-2.1,15.676,15.676,0,0,0,.557-2.164,7.84,7.84,0,0,0,0-2.412,4.336,4.336,0,0,0-.8-2.474,6.012,6.012,0,0,0-1.855-1.36,10.4,10.4,0,0,0-2.721-.618,11.58,11.58,0,0,0-3.587,0,16.834,16.834,0,0,0-3.525.618A22.612,22.612,0,0,0,1097.258,485.369Z" transform="translate(-919.902 -334.644)" fill="#ccddeb"/>
        <path id="Path_65" data-name="Path 65" d="M923.417,511.686a8.006,8.006,0,0,0-1.917,2.226c0,.309.247,1.113.495,1.051a6.965,6.965,0,0,0,.928-.433l1.113-.495a5.447,5.447,0,0,1,.928-.124,6.661,6.661,0,0,1,.989.124s.309-.124.742-.309a2.358,2.358,0,0,1,1.175-.186h2.783a2.911,2.911,0,0,1,1.113.186,5.141,5.141,0,0,1,1.113.495,1.032,1.032,0,0,0,.557-.185.773.773,0,0,0,.247-.8c-.062-.309-1.422-.557-2.164-.8s-2.412-.557-2.412-.557a21.428,21.428,0,0,0-2.906-.371h0A11.2,11.2,0,0,0,923.417,511.686Z" transform="translate(-768.386 -359.29)" fill="#773628"/>
        <path id="Path_66" data-name="Path 66" d="M1092.955,444.032a10.783,10.783,0,0,0-.989,1.546.7.7,0,0,0,.247.928,4.088,4.088,0,0,0,1.175.062l1.113-.742a5.48,5.48,0,0,1,1.051-.495,8.268,8.268,0,0,1,.866-.309,6.354,6.354,0,0,1,1.175-1.3c.433-.247,1.113-.8,1.484-.989s1.422-.866,1.67-.989a17.978,17.978,0,0,1,1.732-.618c.433-.124,2.35-.371,2.783-.433s2.041-.062,2.474-.186,1.484-.371,1.484-.618-2.288-.928-2.845-.989-5.628.093-6,.186a12.369,12.369,0,0,0-2.1.8c-.557.309-1.855,1.237-1.855,1.237s-1.608,1.051-2.041,1.422A10.688,10.688,0,0,0,1092.955,444.032Z" transform="translate(-917.702 -295.656)" fill="#773628"/>
        <path id="Path_67" data-name="Path 67" d="M1082.091,676.609c-.309,0-1.175-.062-1.113.124a17.37,17.37,0,0,0,1.855,1.793,6.01,6.01,0,0,0,1.051.557,8.92,8.92,0,0,0,1.36.433,12.875,12.875,0,0,0,1.546,0,13.875,13.875,0,0,0,1.67-.309s1.36-.433,1.67-.557a10.58,10.58,0,0,0,1.422-.8c.247-.186,1.051-.742,1.237-.928a5.453,5.453,0,0,0,.742-1.175c.124-.309.99-1.917.99-1.917s.742-1.732.8-1.917a.319.319,0,0,0-.186-.433c-.186-.062-1.3.742-1.3.742s-.927.495-1.237.618-1.546.557-1.546.557-1.175.371-1.546.433a12.493,12.493,0,0,1-1.546,0c-.247,0-1.175,1.3-1.36,1.422s-1.113-.124-1.361,0-.866.68-1.113.8-.99.371-.99.371A6.756,6.756,0,0,1,1082.091,676.609Z" transform="translate(-908.136 -499.477)" fill="#924949"/>
        <path id="Path_68" data-name="Path 68" d="M1082.091,677.227s1.051-.062,1.36-.124a12.043,12.043,0,0,0,1.36-.495,10.575,10.575,0,0,1,1.979,0,20.824,20.824,0,0,0,2.164-1.361c.309-.124,1.608-.495,1.855-.618s2.226-1.237,2.226-1.237m-12.059,3.339c-.062-.185.8-.124,1.113-.124a6.756,6.756,0,0,0,1.051-.186s.742-.247.99-.371.866-.68,1.113-.8,1.175.124,1.361,0,1.113-1.422,1.36-1.422a12.493,12.493,0,0,0,1.546,0c.371-.062,1.546-.433,1.546-.433s1.237-.433,1.546-.557,1.237-.618,1.237-.618,1.113-.8,1.3-.742a.319.319,0,0,1,.186.433c-.062.186-.8,1.917-.8,1.917s-.866,1.608-.99,1.917a5.453,5.453,0,0,1-.742,1.175c-.186.186-.99.742-1.237.928a10.58,10.58,0,0,1-1.422.8c-.309.124-1.67.557-1.67.557a13.875,13.875,0,0,1-1.67.309,12.875,12.875,0,0,1-1.546,0,8.92,8.92,0,0,1-1.36-.433,6.01,6.01,0,0,1-1.051-.557A17.37,17.37,0,0,1,1080.978,676.732Z" transform="translate(-908.136 -499.477)" fill="none" stroke="#b55252" stroke-width="1"/>
        <path id="Path_69" data-name="Path 69" d="M1070.5,598.706l1.855,1.175s1.422.68,1.793.928.8.866,1.3,1.237a15.751,15.751,0,0,0,4.082,1.855,14.3,14.3,0,0,0,3.649,0,19.448,19.448,0,0,0,2.721-.68,16.635,16.635,0,0,0,2.659-1.237,14.69,14.69,0,0,0,2.226-1.793c.371-.433.742-1.051,1.175-1.484s1.979-1.793,2.535-2.412,1.67-2.226,1.67-2.226l1.36-2.226s1.917-2.907,2.226-3.587.928-2.164,1.175-2.845.928-2.6,1.051-3.154a15.372,15.372,0,0,0,.495-2.1c.124-.99.124-3.154.124-3.154" transform="translate(-898.957 -416.689)" fill="none" stroke="#b85454" stroke-width="1"/>
        <path id="Path_70" data-name="Path 70" d="M889.75,642.665a15.481,15.481,0,0,1,.513,3.231c0,.532.1,1.041.1,1.59v.769c0,.294-.205.537-.205.821,0,.52-.379.96-.41,1.487a10.411,10.411,0,0,1-.4,1.385,9.916,9.916,0,0,0-.314,1.59,3.276,3.276,0,0,1-.462,1.436c-.219.175-.286,1.286-.353,1.59a6.767,6.767,0,0,0-.108,1.487c0,.943-.226,2.307.182,3.123.445.891,1.2,1.629,1.641,2.519a4.391,4.391,0,0,0,2.177,2.052" transform="translate(-739.07 -474.232)" fill="none" stroke="#b05845" stroke-linecap="round" stroke-linejoin="round" stroke-width="1"/>
        <path id="Path_71" data-name="Path 71" d="M932.894,693.26c.013.678.205,1.254.205,1.9v2.77a4.74,4.74,0,0,1-.313,1.328c-.435,1.521-1.249,3.3-2.764,4.058" transform="translate(-775.853 -518.57)" fill="none" stroke="#b05845" stroke-linecap="round" stroke-linejoin="round" stroke-width="1"/>
        <path id="Path_72" data-name="Path 72" d="M1003.092,767.08a5.347,5.347,0,0,1,.411,1.949v.821c0,.268-.177.387-.205.616-.054.439-.591.879-.741,1.311-.164.477-.632.929-.7,1.459a11.248,11.248,0,0,0-.308,1.436,5.909,5.909,0,0,0-.022,1.687,3.491,3.491,0,0,0,.866,1.676,4.34,4.34,0,0,0,.9.946" transform="translate(-838.461 -583.259)" fill="none" stroke="#b05845" stroke-linecap="round" stroke-linejoin="round" stroke-width="1"/>
        <path id="Path_73" data-name="Path 73" d="M1366.033,523.226c0,.789-.411,1.468-.411,2.206,0,.716-.307,1.419-.307,2.1a19.832,19.832,0,0,0-.006,4.257,4.839,4.839,0,0,1,.006.975c0,.443.1.881.1,1.334,0,.757.1,1.453.1,2.206a5.5,5.5,0,0,0,.183,1.408c.118.4-.015.946.148,1.311.351.791.105,1.9.49,2.667" transform="translate(-1157.186 -369.566)" fill="none" stroke="#b05845" stroke-linecap="round" stroke-linejoin="round" stroke-width="1"/>
        <path id="Path_74" data-name="Path 74" d="M1528.88,709.02a16.208,16.208,0,0,1,1.948,2.052,5.022,5.022,0,0,1,.8,1.026,4.818,4.818,0,0,1,.536,1.026c.043.372.365.645.409,1.026a4.323,4.323,0,0,0,.286,1.026,2.431,2.431,0,0,1-.387,2.052" transform="translate(-1300.644 -532.38)" fill="none" stroke="#b05845" stroke-linecap="round" stroke-linejoin="round" stroke-width="2"/>
        <path id="Path_75" data-name="Path 75" d="M1485.115,577.969c.02.8.683,1.432,1,2.154a6.6,6.6,0,0,1,.638,2.154c0,.674.205,1.334.205,2.052v1.077a4.681,4.681,0,0,1-.313,1.026,10.965,10.965,0,0,1-.771,1.9c-.392.9-.515,1.925-.917,2.81a7.855,7.855,0,0,0-.565,2.878c0,.706-.307,1.4-.307,2.1" transform="translate(-1261.393 -417.538)" fill="none" stroke="#b05845" stroke-linecap="round" stroke-linejoin="round" stroke-width="2"/>
        <path id="Path_76" data-name="Path 76" d="M1484.09,724.779c0,1.224-.009,2.855.763,3.847a1.678,1.678,0,0,0,1.128.775c.471.135,1.152.269,1.391-.211" transform="translate(-1261.393 -546.19)" fill="none" stroke="#b05845" stroke-linecap="round" stroke-linejoin="round" stroke-width="2"/>
        <path id="Path_77" data-name="Path 77" d="M1305.76,436.964c.242.311.537.566.774.872.176.226.391.534.582.747.424.471.6,1.167,1.026,1.641a15.127,15.127,0,0,1,1.106,1.847,3.619,3.619,0,0,0,.667.889c.26.2.568.265.82.467a10.6,10.6,0,0,0,1.437,1.077c.543.3,1.122.686,1.646,1.02.6.379,1.334.385,1.944.724a3.154,3.154,0,0,0,.872.359c.392.046.6.41,1.025.41" transform="translate(-1105.12 -293.973)" fill="none" stroke="#b05845" stroke-linecap="round" stroke-linejoin="round" stroke-width="1"/>
        <path id="Path_78" data-name="Path 78" d="M1388.178,762.025c-.763-.019-1.4-.571-2.155-.615-.593-.035-1.152-.345-1.744-.41a5.914,5.914,0,0,1-1.641-.7c-.523-.276-1.083-.511-1.589-.792a4.981,4.981,0,0,1-1.226-1.231,9.755,9.755,0,0,1-.826-1.128,5.229,5.229,0,0,1-.662-1.334c-.048-.219-.263-1.1-.416-1.18" transform="translate(-1168.355 -572.357)" fill="none" stroke="#b05845" stroke-linecap="round" stroke-linejoin="round" stroke-width="2"/>
        <path id="Path_79" data-name="Path 79" d="M1377.435,624.533c0-1.649-.309-3.254.387-4.822a2.784,2.784,0,0,0,.228-.923c.043-.805.5-1.6.616-2.4a10.175,10.175,0,0,1,.924-2.576,16.945,16.945,0,0,0,.741-2.023,10.45,10.45,0,0,1,.643-1.875,9.012,9.012,0,0,0,.382-1.818c.188-.634.08-1.311.284-1.926" transform="translate(-1167.87 -442.251)" fill="none" stroke="#b05845" stroke-linecap="round" stroke-linejoin="round" stroke-width="1"/>
        <path id="Path_80" data-name="Path 80" d="M1383.376,476.268a4.815,4.815,0,0,1,.359-1.385c.188-.34.069-.776.205-1.128a5.349,5.349,0,0,0,.153-1.482,3.742,3.742,0,0,1,.155-1.391,2.735,2.735,0,0,0,.051-1.128,11.873,11.873,0,0,0-.108-1.693,19.727,19.727,0,0,1-.406-2.821,5.054,5.054,0,0,0-.717-2.183,11.353,11.353,0,0,1-.946-2.359,11.3,11.3,0,0,0-.468-1.356c-.192-.383-.427-.479-.719-.741-.2-.181-.357-.389-.558-.57a3.728,3.728,0,0,0-.8-.331" transform="translate(-1169.809 -312.144)" fill="none" stroke="#b05845" stroke-linecap="round" stroke-linejoin="round" stroke-width="1"/>
        <path id="Path_81" data-name="Path 81" d="M1276.367,316.691a7.544,7.544,0,0,0-2-2c-.448-.249-.746-.722-1.18-.952a2.1,2.1,0,0,1-.615-.69c-.123-.276-.438-.4-.593-.667a2.569,2.569,0,0,0-1.095-.826c-.146-.042-.458-.395-.57-.507-.2-.2-.37-.381-.559-.57-.381-.381-.528-1.046-.9-1.459-.288-.321-.6-.629-.9-.946-.429-.454-.458-1.176-.872-1.59a4.75,4.75,0,0,1-.872-1.334c-.236-.533-.543-1.082-.8-1.59a8.3,8.3,0,0,0-.844-1.436,11.178,11.178,0,0,1-.975-1.693c-.115-.208-.132-.562-.28-.747a1.824,1.824,0,0,1-.381-.587c-.08-.358-.5-.731-.519-1.077a1.979,1.979,0,0,0-.615-1.231" transform="translate(-1066.597 -171.135)" fill="none" stroke="#b05845" stroke-linecap="round" stroke-linejoin="round" stroke-width="1"/>
        <path id="Path_82" data-name="Path 82" d="M1090.261,189.5c-.3-.705-1.056-1.135-1.226-1.9a6.892,6.892,0,0,0-.907-1.59c-.335-.6-.835-1.113-1.208-1.7a8.866,8.866,0,0,0-1.253-1.5,15.073,15.073,0,0,1-1.3-1.362,10.86,10.86,0,0,0-1.6-1.282c-.411-.365-.875-.56-1.283-.878a5.835,5.835,0,0,0-1.545-.963,11.064,11.064,0,0,1-1.584-.906c-.56-.28-1.148-.49-1.692-.792a13.74,13.74,0,0,0-3.489-1.482,16.411,16.411,0,0,0-3.59-.621c-.513,0-1.273-.312-1.795-.08a5.032,5.032,0,0,1-1.744.388" transform="translate(-895.058 -63.842)" fill="none" stroke="#b05845" stroke-linecap="round" stroke-linejoin="round" stroke-width="1"/>
        <path id="Path_83" data-name="Path 83" d="M1025.345,178.18a6.609,6.609,0,0,0-1.846.285c-.475.251-1.1.214-1.591.484-.2.111-.417.064-.586.234a1.984,1.984,0,0,1-.445.331c-.314.179-1.276.545-1.276.923" transform="translate(-854.353 -67.196)" fill="none" stroke="#b05845" stroke-linecap="round" stroke-linejoin="round" stroke-width="1"/>
        <path id="Path_84" data-name="Path 84" d="M998.762,195.6c-.716.437-.861.974-1.254,1.641-.286.487-.93.922-1,1.539a3.713,3.713,0,0,1-.33.923c-.141.268-.145.5-.262.764a5.662,5.662,0,0,0-.023,1.8,5.432,5.432,0,0,0,.741,3.078c.258.414.625.8.877,1.231a2.047,2.047,0,0,0,.946.923" transform="translate(-833.515 -82.46)" fill="none" stroke="#b05845" stroke-linecap="round" stroke-linejoin="round" stroke-width="1"/>
        <path id="Path_85" data-name="Path 85" d="M875.279,284.712a15.2,15.2,0,0,1,.3-2.046,6.137,6.137,0,0,1,.291-1.647,8.556,8.556,0,0,0,.234-1.59c.108-.488.395-.956.5-1.436a8.308,8.308,0,0,1,.336-1.1c.176-.457.69-.9.792-1.362a5.379,5.379,0,0,1,1.26-2.08,9.017,9.017,0,0,1,2.234-1.641c.354-.187.6-.471.975-.638.289-.129.88-.215,1.077-.462a2.537,2.537,0,0,1,1.128-.359c.421,0,.834-.1,1.277-.1h1.391a1.635,1.635,0,0,1,.923.308" transform="translate(-727.882 -147.876)" fill="none" stroke="#b05845" stroke-linecap="round" stroke-linejoin="round" stroke-width="1"/>
        <path id="Path_86" data-name="Path 86" d="M937.486,210.649a8.263,8.263,0,0,1,1.334-.741,3.475,3.475,0,0,1,.821-.387c.227-.013.906-.113.923.205.019.344.41.408.513.718" transform="translate(-782.395 -94.638)" fill="none" stroke="#b05845" stroke-linecap="round" stroke-linejoin="round" stroke-width="1"/>
        <path id="Path_87" data-name="Path 87" d="M978.036,162.863c0-1.356-.1-2.727-.1-4.1a3.511,3.511,0,0,1,.006-.866c.076-.266.454-.433.587-.673a5.207,5.207,0,0,1,1.254-1.436" transform="translate(-817.815 -47.571)" fill="none" stroke="#b05845" stroke-linecap="round" stroke-linejoin="round" stroke-width="1"/>
        <path id="Path_88" data-name="Path 88" d="M1015.45,133.27c.814-.337,1.711-1.128,2.622-1.128.581,0,1.143-.41,1.744-.41h1.784a15.641,15.641,0,0,1,6.982,1.892c1.192.6,2.575.833,3.8,1.391a25.121,25.121,0,0,0,3.26.9,4.218,4.218,0,0,0,1.151.125,4.886,4.886,0,0,1,1.539.228c.359.159.926.117,1.231.387a5.674,5.674,0,0,0,1.026.718" transform="translate(-850.716 -26.492)" fill="none" stroke="#b05845" stroke-linecap="round" stroke-linejoin="round" stroke-width="1"/>
        <path id="Path_89" data-name="Path 89" d="M1060.24,223.45c.759-.167,1.144-.759,1.79-1.128a5.127,5.127,0,0,0,1.243-1.282c.392-.5.738-1.037,1.128-1.539s.638-1.04,1.027-1.539c1.973-2.537,6.423-1.413,8.4.564.524.525,1.3.836,1.749,1.43a14.084,14.084,0,0,0,1.232,1.493l1.6,1.6c.663.663.947,1.562,1.584,2.2.361.362.691.737,1.054,1.1.221.222.4.67.69.8a5.034,5.034,0,0,1,.975.718c.522.494,1.206.79,1.722,1.254a10.06,10.06,0,0,0,1.356.8" transform="translate(-889.966 -100.771)" fill="none" stroke="#b05845" stroke-linecap="round" stroke-linejoin="round" stroke-width="1"/>
        <path id="Path_90" data-name="Path 90" d="M1252.67,205.551c1.166.256,2.042,1.146,3.078,1.664.933.466,1.824,1,2.769,1.47a5.426,5.426,0,0,1,1.6,1.328,2.69,2.69,0,0,0,.712.564c.291.129.428.486.719.615.427.19.594.847.929,1.134.283.243.354.611.61.866s.538.435.769.667a6.374,6.374,0,0,1,1.151,1.334,6.245,6.245,0,0,0,.946,1.436,15.126,15.126,0,0,1,2.262,4.1,25.276,25.276,0,0,0,1.333,2.525,24.616,24.616,0,0,1,.821,2.553,8.831,8.831,0,0,1,.559,2.211c.126.882.826,1.668.826,2.565" transform="translate(-1058.596 -91.182)" fill="none" stroke="#b05845" stroke-linecap="round" stroke-linejoin="round" stroke-width="1"/>
        <path id="Path_91" data-name="Path 91" d="M1406.95,407.934a25.776,25.776,0,0,0,1.589,3.231,25.444,25.444,0,0,1,2,3.38c.193.531.779.982,1.049,1.493.453.86.978,1.694,1.39,2.565.317.67.7,1.293,1.025,1.949a2.538,2.538,0,0,0,.388.615c.218.125.445.184.558.41" transform="translate(-1193.794 -268.533)" fill="none" stroke="#b05845" stroke-linecap="round" stroke-linejoin="round" stroke-width="1"/>
        <path id="Path_92" data-name="Path 92" d="M960.1,2295.979l1.175-1.979s3.216,1.731,4.205,2.165,5.751,2.041,5.751,2.041,3.525,1.3,4.267,1.67a19.629,19.629,0,0,1,2.226,1.546s1.051.742,1.422.928a10.513,10.513,0,0,1,1.979.928c.68.495,2.041,1.793,2.041,1.793a11.925,11.925,0,0,0,2.288,1.732c.618.186,4.638.433,4.638.433s4.7.124,5.257,0,2.226-.68,3.278-.866a15.419,15.419,0,0,1,3.03,0h6.184a31.267,31.267,0,0,0,4.391-.186,17.766,17.766,0,0,0,2.907-1.113,22.677,22.677,0,0,0,2.721-1.422l3.278-1.67a6.251,6.251,0,0,1,1.793-.8c.866-.186,1.67-.186,2.288-.31s1.464-.525,2.226-.618a7.873,7.873,0,0,1,2.35,0c.866.124,2.412.495,2.412.495a11.454,11.454,0,0,1,1.793.557,11.99,11.99,0,0,1,1.422.8l1.36.742s.927.557,1.36.742,1.36.495,1.36.495l1.67.433a11.565,11.565,0,0,1,1.608.618c.247.186.371.309.928.8a11.685,11.685,0,0,1,1.732,2.783,3.746,3.746,0,0,1,0,1.917,1.932,1.932,0,0,0,0,1.237c.247.495.99.927,1.175,1.175s.062.618.186.866a14.334,14.334,0,0,0,.99,1.113,2.043,2.043,0,0,1,.433,1.175,1.694,1.694,0,0,1-.433,1.175,2.677,2.677,0,0,1-1.422,1.051,25.063,25.063,0,0,1-2.536.8,10.193,10.193,0,0,1-3.03-.124,11.252,11.252,0,0,1-2.35-.556,8.1,8.1,0,0,0-1.175-.124,13.951,13.951,0,0,0-1.855.31,10.179,10.179,0,0,1-2.6-.124,7.957,7.957,0,0,1-1.732-.989l-1.484-.742a8.071,8.071,0,0,0-1.917-.433,22.746,22.746,0,0,0-2.412.248c-1.051.124-4.205.062-5.257.062h-5.442c-.866,0-4.143-.124-5.318-.186s-3.092-.248-4.391-.433-1.979-.247-3.154-.495a34.784,34.784,0,0,1-3.4-.928c-1.175-.371-1.793-.742-2.968-1.051s-2.535-.557-2.535-.557-2.783-.433-4.082-.68-2.783-.68-3.772-.928-3.525-.495-3.525-.495-2.412-.247-3.4-.309a36.662,36.662,0,0,1-3.649-.68s-2.535-.557-3.525-.742-2.659-.68-3.463-.8-2.845-.433-3.772-.556-3.4-.247-4.391-.309-2.783-.185-3.649-.247-3.587-.433-3.587-.433.495-.495.99-1.051a13.385,13.385,0,0,0,1.3-1.979,7.733,7.733,0,0,1,1.3-2.1c.742-.742,1.484-1.36,1.855-1.793a12.7,12.7,0,0,0,1.422-1.917C959.421,2297.154,960.1,2295.979,960.1,2295.979Z" transform="translate(-795.114 -1921.326)" fill="#e9b4b4"/>
        <path id="Path_93" data-name="Path 93" d="M1564.186,1842.9l-.186-9.4a10.717,10.717,0,0,1,.68,1.051l.866,1.732a7.052,7.052,0,0,1,.495,1.237,8.6,8.6,0,0,1,.062,1.051,12.5,12.5,0,0,1-.186,1.608,9.037,9.037,0,0,1-.866,1.731,6.839,6.839,0,0,1-.68.99C1564.186,1843.085,1564.186,1842.9,1564.186,1842.9Z" transform="translate(-1331.42 -1517.782)" fill="#e9b4b4"/>
      </g>
    </g>
  </g>
</svg>
